<?xml version="1.0" encoding="UTF-8" standalone="no"?>
<!DOCTYPE svg PUBLIC "-//W3C//DTD SVG 1.1//EN"
 "http://www.w3.org/Graphics/SVG/1.1/DTD/svg11.dtd">
<!-- Generated by graphviz version 2.28.0 (20121121.1108)
 -->
<!-- Title: G Pages: 1 -->
<svg width="216pt" height="359pt"
 viewBox="0.00 0.00 216.00 359.16" xmlns="http://www.w3.org/2000/svg" xmlns:xlink="http://www.w3.org/1999/xlink">
<g id="graph1" class="graph" transform="scale(0.633431 0.633431) rotate(0) translate(4 563)">
<title>G</title>
<polygon fill="white" stroke="white" points="-4,5 -4,-563 338,-563 338,5 -4,5"/>
<g id="graph2" class="cluster"><title>cluster1</title>
<polygon fill="none" stroke="black" stroke-dasharray="5,2" points="8,-8 8,-371 230,-371 230,-8 8,-8"/>
<text text-anchor="middle" x="119" y="-355.8" font-family="Times,serif" font-size="14.00">video save pipeline</text>
</g>
<!-- queue_1 -->
<g id="node1" class="node"><title>queue_1</title>
<polygon fill="none" stroke="black" points="203,-340 149,-340 149,-304 203,-304 203,-340"/>
<text text-anchor="middle" x="176" y="-318.3" font-family="Times,serif" font-size="14.00">queue</text>
</g>
<!-- h264parse -->
<g id="node5" class="node"><title>h264parse</title>
<polygon fill="none" stroke="black" points="176.25,-268 99.75,-268 99.75,-232 176.25,-232 176.25,-268"/>
<text text-anchor="middle" x="138" y="-246.3" font-family="Times,serif" font-size="14.00">h264parse</text>
</g>
<!-- queue_1&#45;&gt;h264parse -->
<g id="edge3" class="edge"><title>queue_1&#45;&gt;h264parse</title>
<path fill="none" stroke="black" d="M166.607,-303.697C162.235,-295.644 156.943,-285.894 152.105,-276.982"/>
<polygon fill="black" stroke="black" points="155.132,-275.223 147.285,-268.104 148.98,-278.563 155.132,-275.223"/>
</g>
<!-- queue_2 -->
<g id="node2" class="node"><title>queue_2</title>
<polygon fill="none" stroke="black" points="302,-340 248,-340 248,-304 302,-304 302,-340"/>
<text text-anchor="middle" x="275" y="-318.3" font-family="Times,serif" font-size="14.00">queue</text>
</g>
<!-- video/x&#45;h264 -->
<g id="node15" class="node"><title>video/x&#45;h264</title>
<polygon fill="none" stroke="black" points="333.25,-268 238.75,-268 238.75,-232 333.25,-232 333.25,-268"/>
<text text-anchor="middle" x="286" y="-246.3" font-family="Times,serif" font-size="14.00">video/x&#45;h264</text>
</g>
<!-- queue_2&#45;&gt;video/x&#45;h264 -->
<g id="edge14" class="edge"><title>queue_2&#45;&gt;video/x&#45;h264</title>
<path fill="none" stroke="black" d="M277.719,-303.697C278.931,-295.983 280.388,-286.712 281.739,-278.112"/>
<polygon fill="black" stroke="black" points="285.217,-278.526 283.312,-268.104 278.302,-277.44 285.217,-278.526"/>
</g>
<!-- video/x&#45;h264,stream&#45;format=avc -->
<g id="node6" class="node"><title>video/x&#45;h264,stream&#45;format=avc</title>
<polygon fill="none" stroke="black" points="222,-196 16,-196 16,-160 222,-160 222,-196"/>
<text text-anchor="middle" x="119" y="-174.3" font-family="Times,serif" font-size="14.00">video/x&#45;h264,stream&#45;format=avc</text>
</g>
<!-- h264parse&#45;&gt;video/x&#45;h264,stream&#45;format=avc -->
<g id="edge4" class="edge"><title>h264parse&#45;&gt;video/x&#45;h264,stream&#45;format=avc</title>
<path fill="none" stroke="black" d="M133.303,-231.697C131.187,-223.898 128.638,-214.509 126.282,-205.829"/>
<polygon fill="black" stroke="black" points="129.64,-204.838 123.643,-196.104 122.884,-206.672 129.64,-204.838"/>
</g>
<!-- mp4mux dts&#45;method=reorder -->
<g id="node7" class="node"><title>mp4mux dts&#45;method=reorder</title>
<polygon fill="none" stroke="black" points="213.25,-124 24.75,-124 24.75,-88 213.25,-88 213.25,-124"/>
<text text-anchor="middle" x="119" y="-102.3" font-family="Times,serif" font-size="14.00">mp4mux dts&#45;method=reorder</text>
</g>
<!-- video/x&#45;h264,stream&#45;format=avc&#45;&gt;mp4mux dts&#45;method=reorder -->
<g id="edge5" class="edge"><title>video/x&#45;h264,stream&#45;format=avc&#45;&gt;mp4mux dts&#45;method=reorder</title>
<path fill="none" stroke="black" d="M119,-159.697C119,-151.983 119,-142.712 119,-134.112"/>
<polygon fill="black" stroke="black" points="122.5,-134.104 119,-124.104 115.5,-134.104 122.5,-134.104"/>
</g>
<!-- filesink location=video.mp4 -->
<g id="node8" class="node"><title>filesink location=video.mp4</title>
<polygon fill="none" stroke="black" points="208,-52 30,-52 30,-16 208,-16 208,-52"/>
<text text-anchor="middle" x="119" y="-30.3" font-family="Times,serif" font-size="14.00">filesink location=video.mp4</text>
</g>
<!-- mp4mux dts&#45;method=reorder&#45;&gt;filesink location=video.mp4 -->
<g id="edge6" class="edge"><title>mp4mux dts&#45;method=reorder&#45;&gt;filesink location=video.mp4</title>
<path fill="none" stroke="black" d="M119,-87.6966C119,-79.9827 119,-70.7125 119,-62.1124"/>
<polygon fill="black" stroke="black" points="122.5,-62.1043 119,-52.1043 115.5,-62.1044 122.5,-62.1043"/>
</g>
<!-- v4l2src -->
<g id="node9" class="node"><title>v4l2src</title>
<polygon fill="none" stroke="black" points="264.25,-559 205.75,-559 205.75,-523 264.25,-523 264.25,-559"/>
<text text-anchor="middle" x="235" y="-537.3" font-family="Times,serif" font-size="14.00">v4l2src</text>
</g>
<!-- mpegtsdemux -->
<g id="node11" class="node"><title>mpegtsdemux</title>
<polygon fill="none" stroke="black" points="284,-487 186,-487 186,-451 284,-451 284,-487"/>
<text text-anchor="middle" x="235" y="-465.3" font-family="Times,serif" font-size="14.00">mpegtsdemux</text>
</g>
<!-- v4l2src&#45;&gt;mpegtsdemux -->
<g id="edge8" class="edge"><title>v4l2src&#45;&gt;mpegtsdemux</title>
<path fill="none" stroke="black" d="M235,-522.697C235,-514.983 235,-505.712 235,-497.112"/>
<polygon fill="black" stroke="black" points="238.5,-497.104 235,-487.104 231.5,-497.104 238.5,-497.104"/>
</g>
<!-- tee -->
<g id="node12" class="node"><title>tee</title>
<polygon fill="none" stroke="black" points="262,-415 208,-415 208,-379 262,-379 262,-415"/>
<text text-anchor="middle" x="235" y="-393.3" font-family="Times,serif" font-size="14.00">tee</text>
</g>
<!-- mpegtsdemux&#45;&gt;tee -->
<g id="edge9" class="edge"><title>mpegtsdemux&#45;&gt;tee</title>
<path fill="none" stroke="black" d="M235,-450.697C235,-442.983 235,-433.712 235,-425.112"/>
<polygon fill="black" stroke="black" points="238.5,-425.104 235,-415.104 231.5,-425.104 238.5,-425.104"/>
</g>
<!-- tee&#45;&gt;queue_1 -->
<g id="edge11" class="edge"><title>tee&#45;&gt;queue_1</title>
<path fill="none" stroke="black" d="M214.485,-378.862C211.856,-376.332 209.288,-373.674 207,-371 201.287,-364.322 195.815,-356.517 191.102,-349.166"/>
<polygon fill="black" stroke="black" points="193.808,-346.886 185.577,-340.215 187.851,-350.563 193.808,-346.886"/>
</g>
<!-- tee&#45;&gt;queue_2 -->
<g id="edge13" class="edge"><title>tee&#45;&gt;queue_2</title>
<path fill="none" stroke="black" d="M244.479,-378.7C249.311,-369.882 255.289,-358.973 260.67,-349.153"/>
<polygon fill="black" stroke="black" points="263.853,-350.627 265.589,-340.176 257.714,-347.264 263.853,-350.627"/>
</g>
<!-- decodebin2 -->
<g id="node16" class="node"><title>decodebin2</title>
<polygon fill="none" stroke="black" points="327.25,-196 244.75,-196 244.75,-160 327.25,-160 327.25,-196"/>
<text text-anchor="middle" x="286" y="-174.3" font-family="Times,serif" font-size="14.00">decodebin2</text>
</g>
<!-- video/x&#45;h264&#45;&gt;decodebin2 -->
<g id="edge15" class="edge"><title>video/x&#45;h264&#45;&gt;decodebin2</title>
<path fill="none" stroke="black" d="M286,-231.697C286,-223.983 286,-214.712 286,-206.112"/>
<polygon fill="black" stroke="black" points="289.5,-206.104 286,-196.104 282.5,-206.104 289.5,-206.104"/>
</g>
</g>
</svg>
